# xmcd
#
# Track frame offsets:
#	182
#	13615
#	31485
#	49980
#	63237
#	77552
#	91067
#	104010
#	119377
#	136420
#
# Disc length: 2005 seconds
#
# Revision: 2
# Processed by: cddbd v1.5.2PL0 Copyright (c) Steve Scherf et al.
# Submitted via: EasyCDDAExtractor 15.3.0.1
#
DISCID=7f07d30a
DTITLE=Pandora
DYEAR=1985
DGENRE=Latin
TTITLE0=Cuando No Estas Conmigo
TTITLE1=Tarde O Temprano
TTITLE2=Como Te Va Mi Amor
TTITLE3=Dejame
TTITLE4=De Mil Maneras
TTITLE5=Todo Por Amor
TTITLE6=Quiereme Mas
TTITLE7=Para Escribir Tu Nombre
TTITLE8=Que Facil Es
TTITLE9=Volver A Empezar
EXTD=
EXTT0=
EXTT1=
EXTT2=
EXTT3=
EXTT4=
EXTT5=
EXTT6=
EXTT7=
EXTT8=
EXTT9=
PLAYORDER=
